<svg xmlns="http://www.w3.org/2000/svg" width="56" height="56" viewBox="0 0 56 56">
    <defs>
        <linearGradient id="a" x1="50%" x2="50%" y1="0%" y2="96.532%">
            <stop offset="0%" stop-color="#35E0E0"/>
            <stop offset="100%" stop-color="#4599F5"/>
        </linearGradient>
    </defs>
    <g fill="none" fill-rule="evenodd">
        <circle cx="28" cy="28" r="28" fill="url(#a)"/>
        <g fill-rule="nonzero">
            <path fill="#714E49" d="M33.937 18.126v1.584a.784.784 0 0 1-.792.792h-.792v-2.376a.784.784 0 0 0-.792-.792h-6.336a.784.784 0 0 0-.793.792v2.376h-.792a.784.784 0 0 1-.792-.792v-1.584a2.373 2.373 0 0 1 2.377-2.376h6.336a2.373 2.373 0 0 1 2.376 2.376z"/>
            <path fill="#7F5A55" d="M41.91 19.71v17.426a2.373 2.373 0 0 1-2.376 2.376H17.251a2.373 2.373 0 0 1-2.376-2.376V19.71c0-.221.095-.412.238-.554l4.04 9.093h18.48l4.04-9.093a.778.778 0 0 1 .238.554z"/>
            <path fill="#936C65" d="M41.673 19.156l-2.455 9.093a2.373 2.373 0 0 1-2.297 1.758H19.865a2.372 2.372 0 0 1-2.297-1.758l-2.455-9.093a.778.778 0 0 1 .554-.238h25.451c.222 0 .412.095.555.238z"/>
            <path fill="#FFD400" d="M31.561 27.63h-6.336a.784.784 0 0 0-.793.793v3.168c0 .444.349.792.793.792h6.336a.784.784 0 0 0 .792-.792v-3.168a.784.784 0 0 0-.792-.792z"/>
            <path fill="#FDBF00" d="M32.353 28.423v3.168a.784.784 0 0 1-.792.792h-3.168v-4.752h3.168c.444 0 .792.348.792.792z"/>
        </g>
    </g>
</svg>
