<svg xmlns="http://www.w3.org/2000/svg" width="56" height="56" viewBox="0 0 56 56">
    <defs>
        <linearGradient id="a" x1="50%" x2="50%" y1="0%" y2="100%">
            <stop offset="0%" stop-color="#66DE61"/>
            <stop offset="100%" stop-color="#32BA7C"/>
        </linearGradient>
    </defs>
    <g fill="none" fill-rule="nonzero">
        <circle cx="28" cy="28" r="28" fill="url(#a)"/>
        <g fill="#FFF">
            <path d="M28.982 32.558c.855.856.855 2.325 0 3.182l-1.77 1.775c-.856.856-2.321.856-3.176 0l-7.755-7.834c-.854-.856-.854-2.325 0-3.182l1.771-1.775c.855-.856 2.32-.856 3.175 0l7.755 7.834z"/>
            <path d="M35.76 19.033c.855-.857 2.32-.857 3.175 0l1.77 1.775c.856.856.856 2.325 0 3.182L27.273 37.392c-.854.857-2.32.857-3.175 0l-1.77-1.774c-.855-.857-.855-2.326 0-3.183L35.76 19.033z"/>
        </g>
    </g>
</svg>
