<svg xmlns="http://www.w3.org/2000/svg" width="64" height="64" viewBox="0 0 64 64">
    <defs>
        <linearGradient id="a" x1="50%" x2="50%" y1="0%" y2="100%">
            <stop offset="0%" stop-color="#FAD961"/>
            <stop offset="100%" stop-color="#F76B1C"/>
        </linearGradient>
    </defs>
    <g fill="none" fill-rule="evenodd">
        <circle cx="32" cy="32" r="32" fill="url(#a)"/>
        <g fill-rule="nonzero">
            <path fill="#FEDBAB" d="M38.741 30.3l-6.372-5.835h.935c.958 0 1.868-.382 2.539-1.052l1.341-1.339.36-.358c.742-.742.215-2.033-.863-2.033h-9.989c-1.352 0-2.589.76-3.199 1.964l-1.088 2.149c-.208.41-.63.67-1.091.67h-4.49v16.737h7.88l3.402 3.395a3.575 3.575 0 0 0 2.539 1.052c.359 0 .718-.048 1.078-.167l10.252-4.28L38.74 30.3z"/>
            <path fill="#17ACE8" d="M19.235 41.208h-6.042A1.194 1.194 0 0 1 12 40.013v-14.35c0-.66.534-1.196 1.193-1.196h6.042v16.741z"/>
            <path fill="#24BB13" d="M51.802 41.208h-8.466l-2.395-2.391V26.858l2.395-2.391h8.466c.662 0 1.198.535 1.198 1.196v14.35c0 .66-.536 1.195-1.198 1.195z"/>
            <path fill="#FFEED7" d="M29.19 24.467a2.41 2.41 0 0 0-2.154 1.322l-3.666 7.282a4.832 4.832 0 0 0 2.45.374c1.711-.182 3.153-1.37 3.922-2.898l.653-1.297h3.535c.634 0 1.255.256 1.703.7l5.315 10.57c.198.42.737.688 1.204.688h3.613V24.467H29.19z"/>
        </g>
    </g>
</svg>
