<svg xmlns="http://www.w3.org/2000/svg" width="241" height="40" viewBox="0 0 241 40">
    <defs>
        <linearGradient id="logoblago-a" x1="48.413%" x2="64.359%" y1="60.491%" y2="29.116%">
            <stop offset="0%" stop-color="#363636"></stop>
            <stop offset="100%" stop-color="#231F1F"></stop>
        </linearGradient>
        <linearGradient id="logoblago-b" x1="50%" x2="50%" y1="0%" y2="100%">
            <stop offset="0%" stop-color="#73DB4E"></stop>
            <stop offset="100%" stop-color="#1DB80E"></stop>
        </linearGradient>
    </defs>
    <g fill="none" fill-rule="evenodd">
        <g transform="translate(80 4)">
            <path fill="url(#logoblago-a)"
                  d="M17.3837662,23.4865081 L14.854089,32 C10.4881254,31.0762917 7.65918435,27.430725 8.49125811,23.5735599 L11.3227599,10.4455959 C16.5979868,11.2337126 18.596756,18.9634978 17.2603896,23.3374512 L17.3837662,23.4865081 Z"></path>
            <polygon fill="#101010" points="16.902 25.146 9.047 21.004 9.261 20.006"></polygon>
            <path fill="url(#logoblago-b)"
                  d="M14.7845402 11.8573776L.220300443 0 .220300443.000144934454C-.851684914 7.89602908 2.12078613 15.3029044 6.26708656 18.085356L16.8888949 25.2020725C18.8346044 18.9375706 18.8657184 15.179855 14.7845402 11.8573776M20.0205307 23.4865081L22.6216068 32C26.9876465 31.0762917 29.8166368 27.430725 28.9845485 23.5735599L26.1529974 10.4455959C20.8776786 11.2337126 18.684141 19.1125547 20.0205307 23.4865081"></path>
            <polygon fill="#149303" points="20.583 25.202 28.438 21.06 28.224 20.062"></polygon>
            <path fill="url(#logoblago-b)"
                  d="M22.6912689,11.8573776 L37.2556896,0 L37.2555087,0.000144934454 C38.3274941,7.89602908 35.355023,15.3029044 31.2087226,18.085356 L20.5869143,25.2020725 C18.6412048,18.9375706 18.6100908,15.179855 22.6912689,11.8573776"></path>
        </g>

        <path fill="#424242"
              d="M145.715,14.62 C145.945001,14.62 146.132499,14.6924993 146.2775,14.8375 C146.422501,14.9825007 146.495,15.1699988 146.495,15.4 L146.495,17.89 C146.495,18.1200011 146.422501,18.3074993 146.2775,18.4525 C146.132499,18.5975007 145.945001,18.67 145.715,18.67 C145.494999,18.67 145.310001,18.5975007 145.16,18.4525 C145.009999,18.3074993 144.935,18.1200011 144.935,17.89 L144.935,16 L135.935,16 L135.935,17.89 C135.935,18.1200011 135.862501,18.3074993 135.7175,18.4525 C135.572499,18.5975007 135.385001,18.67 135.155,18.67 C134.934999,18.67 134.750001,18.5975007 134.6,18.4525 C134.449999,18.3074993 134.375,18.1200011 134.375,17.89 L134.375,15.4 C134.375,15.1699988 134.449999,14.9825007 134.6,14.8375 C134.750001,14.6924993 134.934999,14.62 135.155,14.62 L135.605,14.62 L139.715,4.81 C139.865001,4.45999825 140.109998,4.285 140.45,4.285 C140.810002,4.285 141.054999,4.45999825 141.185,4.81 L145.295,14.62 L145.715,14.62 Z M137.195,14.62 L143.795,14.62 L140.465,6.535 L137.195,14.62 Z M151.94,7.735 C152.730004,7.735 153.437497,7.91249822 154.0625,8.2675 C154.687503,8.62250177 155.177498,9.11499685 155.5325,9.745 C155.887502,10.3750031 156.065,11.0949959 156.065,11.905 C156.065,12.705004 155.890002,13.4199968 155.54,14.05 C155.189998,14.6800031 154.702503,15.1724982 154.0775,15.5275 C153.452497,15.8825018 152.740004,16.06 151.94,16.06 C151.139996,16.06 150.425003,15.8825018 149.795,15.5275 C149.164997,15.1724982 148.675002,14.6800031 148.325,14.05 C147.974998,13.4199968 147.8,12.705004 147.8,11.905 C147.8,11.0949959 147.974998,10.3750031 148.325,9.745 C148.675002,9.11499685 149.164997,8.62250177 149.795,8.2675 C150.425003,7.91249822 151.139996,7.735 151.94,7.735 Z M151.94,9.085 C151.429997,9.085 150.972502,9.2049988 150.5675,9.445 C150.162498,9.6850012 149.845001,10.0199978 149.615,10.45 C149.384999,10.8800021 149.27,11.3649973 149.27,11.905 C149.27,12.4450027 149.384999,12.9274979 149.615,13.3525 C149.845001,13.7775021 150.162498,14.1099988 150.5675,14.35 C150.972502,14.5900012 151.429997,14.71 151.94,14.71 C152.450003,14.71 152.907498,14.5900012 153.3125,14.35 C153.717502,14.1099988 154.032499,13.7775021 154.2575,13.3525 C154.482501,12.9274979 154.595,12.4450027 154.595,11.905 C154.595,11.3649973 154.482501,10.8800021 154.2575,10.45 C154.032499,10.0199978 153.717502,9.6850012 153.3125,9.445 C152.907498,9.2049988 152.450003,9.085 151.94,9.085 Z M162.425,7.72 C163.115003,7.72 163.734997,7.8699985 164.285,8.17 C164.835003,8.4700015 165.264998,8.90749712 165.575,9.4825 C165.885002,10.0575029 166.04,10.7499959 166.04,11.56 L166.04,15.25 C166.04,15.4700011 165.967501,15.6524993 165.8225,15.7975 C165.677499,15.9425007 165.495001,16.015 165.275,16.015 C165.054999,16.015 164.872501,15.9425007 164.7275,15.7975 C164.582499,15.6524993 164.51,15.4700011 164.51,15.25 L164.51,11.56 C164.51,10.7499959 164.292502,10.1375021 163.8575,9.7225 C163.422498,9.30749792 162.845004,9.1 162.125,9.1 C161.704998,9.1 161.322502,9.18499915 160.9775,9.355 C160.632498,9.52500085 160.362501,9.75499855 160.1675,10.045 C159.972499,10.3350014 159.875,10.6599982 159.875,11.02 L159.875,15.25 C159.875,15.4700011 159.805001,15.6524993 159.665,15.7975 C159.524999,15.9425007 159.340001,16.015 159.11,16.015 C158.889999,16.015 158.707501,15.9425007 158.5625,15.7975 C158.417499,15.6524993 158.345,15.4700011 158.345,15.25 L158.345,8.56 C158.345,8.32999885 158.417499,8.1450007 158.5625,8.005 C158.707501,7.8649993 158.889999,7.795 159.11,7.795 C159.340001,7.795 159.524999,7.8649993 159.665,8.005 C159.805001,8.1450007 159.875,8.32999885 159.875,8.56 L159.875,8.725 C160.195002,8.4049984 160.574998,8.15750087 161.015,7.9825 C161.455002,7.80749912 161.924998,7.72 162.425,7.72 Z M172.295,7.735 C173.085004,7.735 173.792497,7.91249822 174.4175,8.2675 C175.042503,8.62250177 175.532498,9.11499685 175.8875,9.745 C176.242502,10.3750031 176.42,11.0949959 176.42,11.905 C176.42,12.705004 176.245002,13.4199968 175.895,14.05 C175.544998,14.6800031 175.057503,15.1724982 174.4325,15.5275 C173.807497,15.8825018 173.095004,16.06 172.295,16.06 C171.494996,16.06 170.780003,15.8825018 170.15,15.5275 C169.519997,15.1724982 169.030002,14.6800031 168.68,14.05 C168.329998,13.4199968 168.155,12.705004 168.155,11.905 C168.155,11.0949959 168.329998,10.3750031 168.68,9.745 C169.030002,9.11499685 169.519997,8.62250177 170.15,8.2675 C170.780003,7.91249822 171.494996,7.735 172.295,7.735 Z M172.295,9.085 C171.784997,9.085 171.327502,9.2049988 170.9225,9.445 C170.517498,9.6850012 170.200001,10.0199978 169.97,10.45 C169.739999,10.8800021 169.625,11.3649973 169.625,11.905 C169.625,12.4450027 169.739999,12.9274979 169.97,13.3525 C170.200001,13.7775021 170.517498,14.1099988 170.9225,14.35 C171.327502,14.5900012 171.784997,14.71 172.295,14.71 C172.805003,14.71 173.262498,14.5900012 173.6675,14.35 C174.072502,14.1099988 174.387499,13.7775021 174.6125,13.3525 C174.837501,12.9274979 174.95,12.4450027 174.95,11.905 C174.95,11.3649973 174.837501,10.8800021 174.6125,10.45 C174.387499,10.0199978 174.072502,9.6850012 173.6675,9.445 C173.262498,9.2049988 172.805003,9.085 172.295,9.085 Z M187.295,7.795 C187.525001,7.795 187.709999,7.8649993 187.85,8.005 C187.990001,8.1450007 188.06,8.32999885 188.06,8.56 L188.06,15.235 C188.06,15.4550011 187.990001,15.6374993 187.85,15.7825 C187.709999,15.9275007 187.525001,16 187.295,16 C187.074999,16 186.892501,15.9275007 186.7475,15.7825 C186.602499,15.6374993 186.53,15.4550011 186.53,15.235 L186.53,10.45 L184.16,13.795 C183.919999,14.1450017 183.650001,14.32 183.35,14.32 C183.059999,14.32 182.795001,14.1450017 182.555,13.795 L180.23,10.45 L180.23,15.235 C180.23,15.4550011 180.160001,15.6374993 180.02,15.7825 C179.879999,15.9275007 179.695001,16 179.465,16 C179.244999,16 179.062501,15.9275007 178.9175,15.7825 C178.772499,15.6374993 178.7,15.4550011 178.7,15.235 L178.7,8.56 C178.7,8.32999885 178.772499,8.1450007 178.9175,8.005 C179.062501,7.8649993 179.244999,7.795 179.465,7.795 C179.785002,7.795 180.054999,7.94999845 180.275,8.26 L183.38,12.745 L186.485,8.26 C186.705001,7.94999845 186.974998,7.795 187.295,7.795 Z M194.48,7.735 C195.270004,7.735 195.977497,7.91249822 196.6025,8.2675 C197.227503,8.62250177 197.717498,9.11499685 198.0725,9.745 C198.427502,10.3750031 198.605,11.0949959 198.605,11.905 C198.605,12.705004 198.430002,13.4199968 198.08,14.05 C197.729998,14.6800031 197.242503,15.1724982 196.6175,15.5275 C195.992497,15.8825018 195.280004,16.06 194.48,16.06 C193.679996,16.06 192.965003,15.8825018 192.335,15.5275 C191.704997,15.1724982 191.215002,14.6800031 190.865,14.05 C190.514998,13.4199968 190.34,12.705004 190.34,11.905 C190.34,11.0949959 190.514998,10.3750031 190.865,9.745 C191.215002,9.11499685 191.704997,8.62250177 192.335,8.2675 C192.965003,7.91249822 193.679996,7.735 194.48,7.735 Z M194.48,9.085 C193.969997,9.085 193.512502,9.2049988 193.1075,9.445 C192.702498,9.6850012 192.385001,10.0199978 192.155,10.45 C191.924999,10.8800021 191.81,11.3649973 191.81,11.905 C191.81,12.4450027 191.924999,12.9274979 192.155,13.3525 C192.385001,13.7775021 192.702498,14.1099988 193.1075,14.35 C193.512502,14.5900012 193.969997,14.71 194.48,14.71 C194.990003,14.71 195.447498,14.5900012 195.8525,14.35 C196.257502,14.1099988 196.572499,13.7775021 196.7975,13.3525 C197.022501,12.9274979 197.135,12.4450027 197.135,11.905 C197.135,11.3649973 197.022501,10.8800021 196.7975,10.45 C196.572499,10.0199978 196.257502,9.6850012 195.8525,9.445 C195.447498,9.2049988 194.990003,9.085 194.48,9.085 Z M203.54,7.735 C204.420004,7.735 205.147497,7.93749797 205.7225,8.3425 C206.297503,8.74750202 206.585,9.3099964 206.585,10.03 C206.585,11.1900058 205.63501,11.9799979 203.735,12.4 C202.974996,12.5600008 202.440002,12.742499 202.13,12.9475 C201.819998,13.152501 201.665,13.4049985 201.665,13.705 C201.665,14.0350016 201.812499,14.2849991 202.1075,14.455 C202.402501,14.6250008 202.839997,14.71 203.42,14.71 C204.480005,14.71 205.209998,14.4950021 205.61,14.065 C205.820001,13.8549989 206.019999,13.75 206.21,13.75 C206.350001,13.75 206.494999,13.8099994 206.645,13.93 C206.815001,14.0800007 206.9,14.2449991 206.9,14.425 C206.9,14.6050009 206.825001,14.7699992 206.675,14.92 C206.334998,15.2600017 205.870003,15.5349989 205.28,15.745 C204.689997,15.955001 204.070003,16.06 203.42,16.06 C202.789997,16.06 202.225002,15.962501 201.725,15.7675 C201.224997,15.572499 200.835001,15.3000017 200.555,14.95 C200.274999,14.5999982 200.135,14.2000022 200.135,13.75 C200.135,13.0999967 200.409997,12.572502 200.96,12.1675 C201.510003,11.762498 202.314995,11.460001 203.375,11.26 C204.035003,11.1299993 204.489999,10.9700009 204.74,10.78 C204.990001,10.589999 205.115,10.3300016 205.115,10 C205.115,9.6999985 204.962502,9.46750082 204.6575,9.3025 C204.352498,9.13749917 203.975002,9.055 203.525,9.055 C203.164998,9.055 202.812502,9.11249942 202.4675,9.2275 C202.122498,9.34250057 201.840001,9.499999 201.62,9.7 C201.519999,9.8000005 201.407501,9.87749972 201.2825,9.9325 C201.157499,9.98750027 201.040001,10.015 200.93,10.015 C200.819999,10.015 200.74,9.9950002 200.69,9.955 C200.569999,9.88499965 200.4775,9.79500055 200.4125,9.685 C200.3475,9.57499945 200.315,9.46500055 200.315,9.355 C200.315,9.20499925 200.365,9.07500055 200.465,8.965 C200.765001,8.59499815 201.189997,8.29750112 201.74,8.0725 C202.290003,7.84749887 202.889997,7.735 203.54,7.735 Z M212.495,7.735 C213.265004,7.735 213.962497,7.91749817 214.5875,8.2825 C215.212503,8.64750182 215.707498,9.14749682 216.0725,9.7825 C216.437502,10.4175032 216.62,11.1249961 216.62,11.905 L216.62,15.25 C216.62,15.4700011 216.547501,15.6524993 216.4025,15.7975 C216.257499,15.9425007 216.075001,16.015 215.855,16.015 C215.634999,16.015 215.452501,15.9425007 215.3075,15.7975 C215.162499,15.6524993 215.09,15.4700011 215.09,15.25 L215.09,14.695 C214.739998,15.1250021 214.315002,15.4599988 213.815,15.7 C213.314998,15.9400012 212.775003,16.06 212.195,16.06 C211.474996,16.06 210.822503,15.8800018 210.2375,15.52 C209.652497,15.1599982 209.192502,14.6625032 208.8575,14.0275 C208.522498,13.3924968 208.355,12.6850039 208.355,11.905 C208.355,11.1249961 208.534998,10.4175032 208.895,9.7825 C209.255002,9.14749682 209.752497,8.64750182 210.3875,8.2825 C211.022503,7.91749817 211.724996,7.735 212.495,7.735 Z M212.495,14.71 C212.995002,14.71 213.447498,14.5875012 213.8525,14.3425 C214.257502,14.0974988 214.574999,13.7625021 214.805,13.3375 C215.035001,12.9124979 215.15,12.4350026 215.15,11.905 C215.15,11.3749973 215.035001,10.8950021 214.805,10.465 C214.574999,10.0349978 214.257502,9.69750122 213.8525,9.4525 C213.447498,9.20749877 212.995002,9.085 212.495,9.085 C211.994998,9.085 211.542502,9.20749877 211.1375,9.4525 C210.732498,9.69750122 210.412501,10.0349978 210.1775,10.465 C209.942499,10.8950021 209.825,11.3749973 209.825,11.905 C209.825,12.4350026 209.942499,12.9124979 210.1775,13.3375 C210.412501,13.7625021 210.732498,14.0974988 211.1375,14.3425 C211.542502,14.5875012 211.994998,14.71 212.495,14.71 Z M227.525,7.72 C228.395004,7.72 229.097497,8.00499715 229.6325,8.575 C230.167503,9.14500285 230.435,9.9399949 230.435,10.96 L230.435,15.25 C230.435,15.4700011 230.365001,15.6524993 230.225,15.7975 C230.084999,15.9425007 229.900001,16.015 229.67,16.015 C229.449999,16.015 229.267501,15.9425007 229.1225,15.7975 C228.977499,15.6524993 228.905,15.4700011 228.905,15.25 L228.905,10.96 C228.905,10.3499969 228.752502,9.88750157 228.4475,9.5725 C228.142498,9.25749842 227.735003,9.1 227.225,9.1 C226.704997,9.1 226.277502,9.2799982 225.9425,9.64 C225.607498,10.0000018 225.44,10.4599972 225.44,11.02 L225.44,15.25 C225.44,15.4700011 225.370001,15.6524993 225.23,15.7975 C225.089999,15.9425007 224.905001,16.015 224.675,16.015 C224.454999,16.015 224.272501,15.9425007 224.1275,15.7975 C223.982499,15.6524993 223.91,15.4700011 223.91,15.25 L223.91,10.96 C223.91,10.3499969 223.757502,9.88750157 223.4525,9.5725 C223.147498,9.25749842 222.740003,9.1 222.23,9.1 C221.699997,9.1 221.267502,9.2799982 220.9325,9.64 C220.597498,10.0000018 220.43,10.4599972 220.43,11.02 L220.43,15.25 C220.43,15.4700011 220.360001,15.6524993 220.22,15.7975 C220.079999,15.9425007 219.895001,16.015 219.665,16.015 C219.444999,16.015 219.262501,15.9425007 219.1175,15.7975 C218.972499,15.6524993 218.9,15.4700011 218.9,15.25 L218.9,8.575 C218.9,8.34499885 218.972499,8.1600007 219.1175,8.02 C219.262501,7.8799993 219.444999,7.81 219.665,7.81 C219.885001,7.81 220.064999,7.87749932 220.205,8.0125 C220.345001,8.14750067 220.42,8.3249989 220.43,8.545 C220.690001,8.2849987 220.999998,8.08250072 221.36,7.9375 C221.720002,7.79249927 222.109998,7.72 222.53,7.72 C223.040003,7.72 223.497498,7.82249897 223.9025,8.0275 C224.307502,8.23250102 224.639999,8.5249981 224.9,8.905 C225.200002,8.53499815 225.574998,8.24500105 226.025,8.035 C226.475002,7.82499895 226.974997,7.72 227.525,7.72 Z M239.735,7.78 C239.965001,7.78 240.149999,7.8499993 240.29,7.99 C240.430001,8.1300007 240.5,8.31499885 240.5,8.545 L240.5,15.235 C240.5,15.4550011 240.430001,15.6374993 240.29,15.7825 C240.149999,15.9275007 239.965001,16 239.735,16 C239.514999,16 239.332501,15.9275007 239.1875,15.7825 C239.042499,15.6374993 238.97,15.4550011 238.97,15.235 L238.97,15.07 C238.649998,15.3900016 238.270002,15.6374991 237.83,15.8125 C237.389998,15.9875009 236.920003,16.075 236.42,16.075 C235.729997,16.075 235.110003,15.9250015 234.56,15.625 C234.009997,15.3249985 233.580002,14.8875029 233.27,14.3125 C232.959998,13.7374971 232.805,13.045004 232.805,12.235 L232.805,8.545 C232.805,8.3249989 232.877499,8.14250072 233.0225,7.9975 C233.167501,7.85249927 233.349999,7.78 233.57,7.78 C233.790001,7.78 233.972499,7.85249927 234.1175,7.9975 C234.262501,8.14250072 234.335,8.3249989 234.335,8.545 L234.335,12.235 C234.335,13.045004 234.552498,13.6574979 234.9875,14.0725 C235.422502,14.4875021 235.999996,14.695 236.72,14.695 C237.140002,14.695 237.522498,14.6100008 237.8675,14.44 C238.212502,14.2699991 238.482499,14.0400014 238.6775,13.75 C238.872501,13.4599985 238.97,13.1350018 238.97,12.775 L238.97,8.545 C238.97,8.31499885 239.042499,8.1300007 239.1875,7.99 C239.332501,7.8499993 239.514999,7.78 239.735,7.78 Z M137.06,31.22 C137.06,31.4400011 136.987501,31.6249992 136.8425,31.775 C136.697499,31.9250007 136.510001,32 136.28,32 C136.059999,32 135.875001,31.9250007 135.725,31.775 C135.574999,31.6249992 135.5,31.4400011 135.5,31.22 L135.5,21.065 C135.5,20.8349988 135.574999,20.6475007 135.725,20.5025 C135.875001,20.3574993 136.059999,20.285 136.28,20.285 L144.26,20.285 C144.490001,20.285 144.677499,20.3574993 144.8225,20.5025 C144.967501,20.6475007 145.04,20.8349988 145.04,21.065 L145.04,31.22 C145.04,31.4400011 144.967501,31.6249992 144.8225,31.775 C144.677499,31.9250007 144.490001,32 144.26,32 C144.039999,32 143.855001,31.9250007 143.705,31.775 C143.554999,31.6249992 143.48,31.4400011 143.48,31.22 L143.48,21.665 L137.06,21.665 L137.06,31.22 Z M152.015,23.735 C152.785004,23.735 153.487497,23.9174982 154.1225,24.2825 C154.757503,24.6475018 155.254998,25.1474968 155.615,25.7825 C155.975002,26.4175032 156.155,27.1249961 156.155,27.905 C156.155,28.6850039 155.987502,29.3924968 155.6525,30.0275 C155.317498,30.6625032 154.857503,31.1599982 154.2725,31.52 C153.687497,31.8800018 153.035004,32.06 152.315,32.06 C151.734997,32.06 151.195002,31.9400012 150.695,31.7 C150.194997,31.4599988 149.770002,31.1250021 149.42,30.695 L149.42,34.745 C149.42,34.9750011 149.350001,35.1599993 149.21,35.3 C149.069999,35.4400007 148.885001,35.51 148.655,35.51 C148.434999,35.51 148.252501,35.4400007 148.1075,35.3 C147.962499,35.1599993 147.89,34.9750011 147.89,34.745 L147.89,27.905 C147.89,27.1249961 148.072498,26.4175032 148.4375,25.7825 C148.802502,25.1474968 149.297497,24.6475018 149.9225,24.2825 C150.547503,23.9174982 151.244996,23.735 152.015,23.735 Z M152.015,30.71 C152.515002,30.71 152.967498,30.5875012 153.3725,30.3425 C153.777502,30.0974988 154.097499,29.7625021 154.3325,29.3375 C154.567501,28.9124979 154.685,28.4350026 154.685,27.905 C154.685,27.3749973 154.567501,26.8950021 154.3325,26.465 C154.097499,26.0349978 153.777502,25.6975012 153.3725,25.4525 C152.967498,25.2074988 152.515002,25.085 152.015,25.085 C151.514997,25.085 151.062502,25.2074988 150.6575,25.4525 C150.252498,25.6975012 149.935001,26.0349978 149.705,26.465 C149.474999,26.8950021 149.36,27.3749973 149.36,27.905 C149.36,28.4350026 149.474999,28.9124979 149.705,29.3375 C149.935001,29.7625021 150.252498,30.0974988 150.6575,30.3425 C151.062502,30.5875012 151.514997,30.71 152.015,30.71 Z M162.155,23.735 C162.945004,23.735 163.652497,23.9124982 164.2775,24.2675 C164.902503,24.6225018 165.392498,25.1149968 165.7475,25.745 C166.102502,26.3750031 166.28,27.0949959 166.28,27.905 C166.28,28.705004 166.105002,29.4199968 165.755,30.05 C165.404998,30.6800031 164.917503,31.1724982 164.2925,31.5275 C163.667497,31.8825018 162.955004,32.06 162.155,32.06 C161.354996,32.06 160.640003,31.8825018 160.01,31.5275 C159.379997,31.1724982 158.890002,30.6800031 158.54,30.05 C158.189998,29.4199968 158.015,28.705004 158.015,27.905 C158.015,27.0949959 158.189998,26.3750031 158.54,25.745 C158.890002,25.1149968 159.379997,24.6225018 160.01,24.2675 C160.640003,23.9124982 161.354996,23.735 162.155,23.735 Z M162.155,25.085 C161.644997,25.085 161.187502,25.2049988 160.7825,25.445 C160.377498,25.6850012 160.060001,26.0199978 159.83,26.45 C159.599999,26.8800021 159.485,27.3649973 159.485,27.905 C159.485,28.4450027 159.599999,28.9274979 159.83,29.3525 C160.060001,29.7775021 160.377498,30.1099988 160.7825,30.35 C161.187502,30.5900012 161.644997,30.71 162.155,30.71 C162.665003,30.71 163.122498,30.5900012 163.5275,30.35 C163.932502,30.1099988 164.247499,29.7775021 164.4725,29.3525 C164.697501,28.9274979 164.81,28.4450027 164.81,27.905 C164.81,27.3649973 164.697501,26.8800021 164.4725,26.45 C164.247499,26.0199978 163.932502,25.6850012 163.5275,25.445 C163.122498,25.2049988 162.665003,25.085 162.155,25.085 Z M172.205,23.735 C173.385006,23.735 174.364996,24.1849955 175.145,25.085 C175.245001,25.1950005 175.295,25.3249992 175.295,25.475 C175.295,25.6950011 175.185001,25.8799992 174.965,26.03 C174.865,26.1000003 174.750001,26.135 174.62,26.135 C174.389999,26.135 174.195001,26.0450009 174.035,25.865 C173.784999,25.5949986 173.512501,25.3975006 173.2175,25.2725 C172.922499,25.1474994 172.585002,25.085 172.205,25.085 C171.434996,25.085 170.810002,25.3424974 170.33,25.8575 C169.849998,26.3725026 169.61,27.0549957 169.61,27.905 C169.61,28.4450027 169.722499,28.9274979 169.9475,29.3525 C170.172501,29.7775021 170.487498,30.1099988 170.8925,30.35 C171.297502,30.5900012 171.759997,30.71 172.28,30.71 C172.960003,30.71 173.509998,30.5350017 173.93,30.185 C174.120001,30.0449993 174.304999,29.975 174.485,29.975 C174.625001,29.975 174.754999,30.0199995 174.875,30.11 C175.065001,30.2700008 175.16,30.449999 175.16,30.65 C175.16,30.8000007 175.100001,30.9349994 174.98,31.055 C174.259996,31.7250033 173.360005,32.06 172.28,32.06 C171.489996,32.06 170.780003,31.8800018 170.15,31.52 C169.519997,31.1599982 169.027502,30.6625032 168.6725,30.0275 C168.317498,29.3924968 168.14,28.6850039 168.14,27.905 C168.14,27.104996 168.312498,26.3875032 168.6575,25.7525 C169.002502,25.1174968 169.484997,24.6225018 170.105,24.2675 C170.725003,23.9124982 171.424996,23.735 172.205,23.735 Z M186.2,23.72 C187.070004,23.72 187.772497,24.0049971 188.3075,24.575 C188.842503,25.1450028 189.11,25.9399949 189.11,26.96 L189.11,31.25 C189.11,31.4700011 189.040001,31.6524993 188.9,31.7975 C188.759999,31.9425007 188.575001,32.015 188.345,32.015 C188.124999,32.015 187.942501,31.9425007 187.7975,31.7975 C187.652499,31.6524993 187.58,31.4700011 187.58,31.25 L187.58,26.96 C187.58,26.3499969 187.427502,25.8875016 187.1225,25.5725 C186.817498,25.2574984 186.410003,25.1 185.9,25.1 C185.379997,25.1 184.952502,25.2799982 184.6175,25.64 C184.282498,26.0000018 184.115,26.4599972 184.115,27.02 L184.115,31.25 C184.115,31.4700011 184.045001,31.6524993 183.905,31.7975 C183.764999,31.9425007 183.580001,32.015 183.35,32.015 C183.129999,32.015 182.947501,31.9425007 182.8025,31.7975 C182.657499,31.6524993 182.585,31.4700011 182.585,31.25 L182.585,26.96 C182.585,26.3499969 182.432502,25.8875016 182.1275,25.5725 C181.822498,25.2574984 181.415003,25.1 180.905,25.1 C180.374997,25.1 179.942502,25.2799982 179.6075,25.64 C179.272498,26.0000018 179.105,26.4599972 179.105,27.02 L179.105,31.25 C179.105,31.4700011 179.035001,31.6524993 178.895,31.7975 C178.754999,31.9425007 178.570001,32.015 178.34,32.015 C178.119999,32.015 177.937501,31.9425007 177.7925,31.7975 C177.647499,31.6524993 177.575,31.4700011 177.575,31.25 L177.575,24.575 C177.575,24.3449988 177.647499,24.1600007 177.7925,24.02 C177.937501,23.8799993 178.119999,23.81 178.34,23.81 C178.560001,23.81 178.739999,23.8774993 178.88,24.0125 C179.020001,24.1475007 179.095,24.3249989 179.105,24.545 C179.365001,24.2849987 179.674998,24.0825007 180.035,23.9375 C180.395002,23.7924993 180.784998,23.72 181.205,23.72 C181.715003,23.72 182.172498,23.822499 182.5775,24.0275 C182.982502,24.232501 183.314999,24.5249981 183.575,24.905 C183.875001,24.5349981 184.249998,24.245001 184.7,24.035 C185.150002,23.8249989 185.649997,23.72 186.2,23.72 Z M195.365,23.735 C196.155004,23.735 196.862497,23.9124982 197.4875,24.2675 C198.112503,24.6225018 198.602498,25.1149968 198.9575,25.745 C199.312502,26.3750031 199.49,27.0949959 199.49,27.905 C199.49,28.705004 199.315002,29.4199968 198.965,30.05 C198.614998,30.6800031 198.127503,31.1724982 197.5025,31.5275 C196.877497,31.8825018 196.165004,32.06 195.365,32.06 C194.564996,32.06 193.850003,31.8825018 193.22,31.5275 C192.589997,31.1724982 192.100002,30.6800031 191.75,30.05 C191.399998,29.4199968 191.225,28.705004 191.225,27.905 C191.225,27.0949959 191.399998,26.3750031 191.75,25.745 C192.100002,25.1149968 192.589997,24.6225018 193.22,24.2675 C193.850003,23.9124982 194.564996,23.735 195.365,23.735 Z M195.365,25.085 C194.854997,25.085 194.397502,25.2049988 193.9925,25.445 C193.587498,25.6850012 193.270001,26.0199978 193.04,26.45 C192.809999,26.8800021 192.695,27.3649973 192.695,27.905 C192.695,28.4450027 192.809999,28.9274979 193.04,29.3525 C193.270001,29.7775021 193.587498,30.1099988 193.9925,30.35 C194.397502,30.5900012 194.854997,30.71 195.365,30.71 C195.875003,30.71 196.332498,30.5900012 196.7375,30.35 C197.142502,30.1099988 197.457499,29.7775021 197.6825,29.3525 C197.907501,28.9274979 198.02,28.4450027 198.02,27.905 C198.02,27.3649973 197.907501,26.8800021 197.6825,26.45 C197.457499,26.0199978 197.142502,25.6850012 196.7375,25.445 C196.332498,25.2049988 195.875003,25.085 195.365,25.085 Z"></path>
        <rect width="1" height="40" x="55" fill="#B4B4B4"></rect>
        <g transform="translate(0 4)">
            <polygon fill="#131313" points=".139 31.868 12.188 31.881 12.201 19.57 .152 19.558"></polygon>
            <path fill="#75AF26"
                  d="M0.154753157,0.119853529 L0.139356637,15.4441144 L3.32451177,15.4473926 C11.7075963,15.4562438 15.9541491,19.8054281 15.9451678,28.3723409 L15.9419602,31.6256239 L30.9372087,31.6410314 L30.9692847,0.151979862 L0.154753157,0.119853529 Z M24.5919177,6.65526758 L24.5733136,25.1252866 L22.1150025,25.1229918 C21.0635485,15.9879674 15.4521584,10.2429267 6.51576137,9.15063133 L6.51800669,6.63658186 L24.5919177,6.65526758 Z"></path>
        </g>
    </g>
</svg>